<?xml version="1.0" encoding="UTF-8" standalone="no"?>
<!-- Created with Inkscape (http://www.inkscape.org/) -->
<svg xmlns:dc="http://purl.org/dc/elements/1.1/" xmlns:cc="http://web.resource.org/cc/" xmlns:rdf="http://www.w3.org/1999/02/22-rdf-syntax-ns#" xmlns:svg="http://www.w3.org/2000/svg" xmlns="http://www.w3.org/2000/svg" xmlns:sodipodi="http://sodipodi.sourceforge.net/DTD/sodipodi-0.dtd" xmlns:inkscape="http://www.inkscape.org/namespaces/inkscape" width="578.57141" height="571.42859" id="svg2809" sodipodi:version="0.32" inkscape:version="0.44" sodipodi:docbase="/home/pm/Desktop" sodipodi:docname="Wu_(negative).svg" version="1.0">
  <defs id="defs2811"/>
  <sodipodi:namedview id="base" pagecolor="#ffffff" bordercolor="#666666" borderopacity="1.0" gridtolerance="10000" guidetolerance="10" objecttolerance="10" inkscape:pageopacity="0.0" inkscape:pageshadow="2" inkscape:zoom="0.7" inkscape:cx="282.52726" inkscape:cy="465.57828" inkscape:document-units="px" inkscape:current-layer="layer1" inkscape:window-width="1272" inkscape:window-height="946" inkscape:window-x="0" inkscape:window-y="0"/>
  <metadata id="metadata2814">
    <rdf:RDF>
      <cc:Work rdf:about="">
        <dc:format>image/svg+xml</dc:format>
        <dc:type rdf:resource="http://purl.org/dc/dcmitype/StillImage"/>
      </cc:Work>
    </rdf:RDF>
  </metadata>
  <g inkscape:label="Layer 1" inkscape:groupmode="layer" id="layer1" transform="translate(-11.4286, -370.934)">
    <path style="fill:black" d="M 152.81346,891.26346 C 149.11867,890.1578 144.55382,885.82796 142.14372,881.143 C 140.32114,877.60013 132.20955,851.92737 132.20927,849.70102 C 132.20898,847.28372 142.64084,835.09463 155.65846,822.30189 C 175.25373,803.04511 180.9694,794.35094 183.1143,780.5385 L 183.84984,775.80189 L 186.12553,782.80189 C 187.67936,787.58132 188.56946,793.29135 188.93146,800.80189 C 189.50606,812.72213 188.37956,821.98434 183.10069,848.7434 L 180.15314,863.68491 L 170.70124,877.9934 C 160.48011,893.46638 160.39241,893.53144 152.81346,891.26346 z M 260.93356,874.87941 C 253.44746,871.80096 252.32646,870.79778 249.67296,864.80189 C 243.78106,851.48823 243.72886,836.09915 249.50956,816.60253 C 253.51746,803.08506 255.28006,789.57016 254.47206,778.55189 C 254.14586,774.10414 254.32066,771.30189 254.92426,771.30189 C 256.84616,771.30189 264.19396,776.89283 266.65366,780.22672 C 269.81256,784.5084 271.86366,790.99659 272.68376,799.30189 C 273.61166,808.69981 275.85926,816.76527 279.91436,825.24898 C 283.36346,832.46501 283.45426,832.95186 282.84026,840.93967 C 282.49176,845.47364 281.57596,852.24745 280.80506,855.99258 C 280.03426,859.7377 279.08966,865.62272 278.70606,869.0704 C 278.19666,873.64749 277.51366,875.60375 276.17456,876.3204 C 273.11216,877.95936 267.02356,877.3837 260.93356,874.87941 z M 445.43163,874.74519 C 444.20923,873.889 443.20913,872.52776 443.20913,871.7202 C 443.20913,868.54859 439.07063,858.74527 434.86293,851.94954 C 427.95523,840.79318 424.76623,833.82897 419.19473,817.73266 C 416.35223,809.52074 412.47113,800.23254 410.56993,797.09223 C 406.96443,791.13673 399.54626,782.97023 392.70916,777.4299 L 388.70916,774.18855 L 394.70916,774.82741 C 412.49373,776.72107 432.10573,787.97461 449.52913,806.28371 C 457.41513,814.57055 458.68193,816.53048 467.60923,834.25795 C 475.34213,849.61356 477.20913,854.16557 477.20913,857.66357 C 477.20913,862.63619 474.63103,867.07023 469.19953,871.43936 C 463.64033,875.9112 449.83723,877.83104 445.43163,874.74519 z M 353.19726,859.82053 C 351.27876,858.45577 348.13416,857.17283 346.20916,856.96955 C 339.32096,856.24213 335.96836,846.49687 332.21846,816.30189 C 329.12406,791.38475 324.15526,775.8455 315.80336,764.96572 C 312.44636,760.59272 312.31196,760.19493 314.39996,760.81215 C 330.77146,765.6516 352.41516,783.67016 359.49606,798.35498 C 367.27146,814.48006 368.61536,852.67056 361.67726,860.33714 C 359.32866,862.93229 357.40696,862.81522 353.19726,859.82053 z M 98.709138,788.66568 C 97.609138,788.37908 92.561718,786.83653 87.492658,785.2378 C 76.226748,781.68466 64.330018,780.27938 53.709138,781.2472 C 49.309138,781.64814 45.545208,781.84805 45.344858,781.69142 C 44.611918,781.11847 71.992008,768.37149 81.520388,764.84967 C 93.654858,760.3646 117.30055,754.23035 153.16664,746.26294 C 168.26826,742.90822 180.92629,739.9767 181.29558,739.74847 C 181.66488,739.52023 181.76286,737.41388 181.51333,735.06769 C 181.26379,732.7215 180.75577,719.10189 180.38438,704.80189 L 179.70914,678.80189 L 172.16163,678.11711 C 163.03352,677.28893 157.65253,675.24499 145.24907,667.89455 C 135.01743,661.83115 127.80489,658.79737 119.80514,657.19219 C 111.76072,655.57804 111.68867,655.53448 113.58913,653.4345 C 115.99016,650.78139 121.59657,649.39096 134.39144,648.2754 C 163.32697,645.75256 169.08975,645.16069 171.80155,644.43319 L 174.70914,643.65316 L 174.60494,633.72753 C 174.54763,628.26843 174.09174,616.59608 173.59186,607.78898 C 172.59502,590.22641 172.35095,589.51673 164.42178,581.12608 L 160.94814,577.45027 L 173.76997,581.91942 C 187.44756,586.68686 195.77026,590.73816 200.85236,595.10256 C 204.86066,598.54485 212.78776,619.73281 213.81366,629.74625 L 214.50046,636.4495 L 219.10476,635.86734 C 221.63716,635.54715 228.88416,634.82903 235.20916,634.27151 C 245.91946,633.32744 256.56266,631.82584 260.30906,630.73027 C 261.62486,630.34548 262.01486,628.00187 262.50536,617.53215 C 262.83346,610.53051 263.66716,599.2864 264.35796,592.54525 C 266.22226,574.3524 263.77756,563.48069 255.32966,552.39603 L 252.73396,548.99017 L 256.72156,549.7107 C 262.91276,550.82939 268.51466,553.91121 278.50666,561.69548 C 283.56806,565.63852 289.82086,570.37083 292.40196,572.21172 C 301.01536,578.35508 302.67156,587.26755 298.78056,606.53547 C 296.48416,617.90726 295.60036,625.30189 296.53766,625.30189 C 297.61816,625.30189 334.09616,620.19299 335.87946,619.79192 C 337.75966,619.36904 338.13486,618.40137 338.68626,612.55284 C 339.74146,601.36191 341.19306,591.36766 343.37046,580.30189 C 347.16406,561.02228 344.97556,550.44776 335.35086,541.55189 L 330.75276,537.30189 L 334.52306,537.30189 C 344.31916,537.30189 366.78326,543.89504 375.04036,549.19357 C 381.93146,553.61559 383.37636,557.10826 383.98076,570.80542 C 384.42006,580.75965 381.90596,614.36546 380.55886,616.545 C 379.85066,617.69086 396.41196,617.34814 407.70913,615.98314 L 417.70913,614.77488 L 418.95713,602.28839 C 419.64353,595.42081 420.93223,584.9527 421.82083,579.02591 C 423.68553,566.58934 423.17143,558.71786 419.74903,547.30189 C 418.51243,543.17689 417.13793,538.90189 416.69473,537.80189 C 415.93193,535.90873 416.01763,535.91809 418.29893,537.97708 C 422.27943,541.56954 430.44283,545.15968 440.67763,547.8189 C 451.82443,550.71509 457.20033,553.20394 460.00163,556.76529 C 463.59673,561.33565 463.50193,564.92226 459.32423,582.40243 C 453.01693,608.79365 451.87923,615.19949 453.21383,616.80762 C 453.85123,617.57556 456.37713,618.50446 458.82703,618.87184 C 461.27693,619.23923 464.15763,620.27378 465.22873,621.17085 C 467.15813,622.7869 467.15783,622.88462 465.19513,631.80189 C 464.10563,636.75189 462.71653,642.01984 462.10833,643.50844 C 460.66993,647.02893 455.56013,648.73571 448.82473,647.94548 L 443.70913,647.34529 L 438.97043,656.64173 C 436.36423,661.75477 431.08723,670.40751 427.24393,675.87003 C 413.97263,694.73252 402.20916,712.55366 402.20916,713.79653 C 402.20916,714.57735 404.43243,715.2951 408.15613,715.71639 C 411.42703,716.08644 421.88953,717.67589 431.40613,719.2485 C 457.15903,723.50411 460.55043,723.77955 463.48903,721.85415 C 470.06193,717.54739 476.99723,718.00756 484.66583,723.25927 C 492.39863,728.55492 497.28703,730.49764 503.11483,730.59113 C 506.19163,730.64049 509.71873,730.34118 510.95283,729.926 C 512.82083,729.29749 514.02893,730.06091 518.16943,734.48651 C 520.90453,737.40997 525.44823,742.26953 528.26653,745.28552 L 533.39063,750.76916 L 533.04993,759.46389 C 532.61483,770.56414 530.90393,773.24434 523.10133,775.04919 C 513.67983,777.22851 506.03333,774.94628 495.81763,766.90593 C 484.96403,758.36359 474.81703,754.82107 449.52523,750.74443 C 413.88013,744.999 353.78356,744.65274 296.70916,749.86395 C 225.71616,756.346 141.52012,773.38919 115.88626,786.46661 C 111.91357,788.49333 102.61606,789.68362 98.709138,788.66568 z M 236.98906,727.97234 C 250.30596,725.04109 261.43396,722.41039 261.71796,722.12635 C 262.56926,721.27505 263.57576,669.06982 262.81866,665.03423 C 262.24556,661.97906 261.69116,661.30189 259.76316,661.30189 C 256.36576,661.30189 235.87356,664.89105 224.96716,667.39634 L 215.63206,669.54069 L 213.85636,698.67129 C 212.87976,714.69312 211.84886,729.03939 211.56546,730.55189 C 211.28206,732.06439 211.43866,733.30189 211.91336,733.30189 C 212.38816,733.30189 223.67216,730.90359 236.98906,727.97234 z M 307.70916,716.37245 C 313.20916,715.85217 322.99666,715.12906 329.45916,714.76554 C 335.92166,714.40202 341.20916,713.7616 341.20916,713.34239 C 341.20916,712.92318 340.30536,706.78007 339.20086,699.69104 C 338.09626,692.60201 336.65936,678.57457 336.00776,668.51897 C 335.15746,655.39594 334.49386,650.3624 333.65636,650.68378 C 332.20526,651.24062 315.70696,653.93395 303.70916,655.57265 L 294.70916,656.80189 L 294.05926,669.80189 C 293.70186,676.95189 292.91436,688.60474 292.30926,695.69711 C 291.70426,702.78948 291.20916,710.82706 291.20916,713.5584 L 291.20916,718.52447 L 294.45916,717.92144 C 296.24666,717.58978 302.20916,716.89273 307.70916,716.37245 z M 384.83416,712.72674 C 387.01166,712.29112 388.15396,711.13872 389.54246,707.97674 C 393.27266,699.48247 406.13793,666.47924 409.54253,656.67056 L 413.05913,646.53924 L 409.38413,645.93157 C 404.73913,645.16352 384.65526,645.33133 380.82446,646.1702 C 378.00726,646.78713 377.86366,647.14071 374.67876,661.30189 C 372.88516,669.27689 370.44796,679.40189 369.26286,683.80189 C 368.07156,688.22485 366.84016,696.60854 366.50886,702.55189 L 365.90956,713.30189 L 373.93436,713.30189 C 378.34796,713.30189 383.25286,713.04307 384.83416,712.72674 z M 128.20914,573.65937 C 128.20914,572.14264 157.94034,539.80476 184.59473,512.33016 C 214.74496,481.25215 227.93876,464.22591 239.72186,441.19004 C 244.26126,432.31563 245.08956,429.9167 244.57156,427.14478 C 243.66496,422.29395 240.60866,417.71192 236.64606,415.26292 C 230.51146,411.47153 230.35766,408.30287 236.04706,402.92058 L 239.09266,400.03927 L 247.90096,404.56958 C 257.79326,409.65749 266.26036,412.48241 276.99746,414.27721 C 287.97216,416.11173 293.20916,421.57994 293.20916,431.20467 C 293.20916,437.08129 292.21746,439.03595 278.53996,460.11811 C 271.64756,470.74203 266.24766,479.67371 266.54016,479.96628 C 267.29456,480.7206 292.29766,475.76685 307.70916,471.80968 C 314.85916,469.97379 329.93416,465.70702 341.20916,462.32797 C 371.94736,453.1159 398.08846,446.30189 402.69116,446.30189 C 411.43153,446.30189 427.14933,451.99004 432.55233,457.10843 C 435.86683,460.24828 439.64013,467.3486 440.56573,472.1873 C 441.45743,476.84912 439.69153,482.68289 436.17683,486.68583 C 431.85523,491.60784 416.69643,496.95651 404.70913,497.78899 C 389.01246,498.87905 373.61876,501.16347 339.70916,507.43491 C 298.21246,515.10955 293.40996,515.0226 279.00716,506.33589 C 272.44286,502.37679 259.16556,497.30189 255.37176,497.30189 C 254.28026,497.30189 245.12956,503.48939 235.03706,511.05189 C 198.11976,538.71462 157.83512,564.05367 139.45736,571.17149 C 134.09597,573.24799 128.20914,574.55004 128.20914,573.65937 z " id="path2878"/>
  </g>
</svg>